<svg width="38" height="27" viewBox="0 0 38 27" fill="none" xmlns="http://www.w3.org/2000/svg">
<path id="Vector" d="M37.4121 9.79991L35.2538 4.17701C35.0706 3.70101 34.7544 3.29335 34.3462 3.00689C33.938 2.72043 33.4566 2.56838 32.9644 2.57047H27.6333V1.28523C27.6333 0.944369 27.5034 0.617465 27.2721 0.376437C27.0408 0.135408 26.7271 0 26.4 0H2.96667C2.31247 0 1.68506 0.270816 1.22247 0.752873C0.75988 1.23493 0.5 1.88874 0.5 2.57047V20.5637C0.5 21.2455 0.75988 21.8993 1.22247 22.3813C1.68506 22.8634 2.31247 23.1342 2.96667 23.1342H5.5875C5.8592 24.2401 6.47636 25.2202 7.34168 25.9201C8.207 26.6201 9.27126 27 10.3667 27C11.4621 27 12.5263 26.6201 13.3917 25.9201C14.257 25.2202 14.8741 24.2401 15.1458 23.1342H22.8542C23.1259 24.2401 23.743 25.2202 24.6083 25.9201C25.4737 26.6201 26.5379 27 27.6333 27C28.7287 27 29.793 26.6201 30.6583 25.9201C31.5236 25.2202 32.1408 24.2401 32.4125 23.1342H35.0333C35.6875 23.1342 36.3149 22.8634 36.7775 22.3813C37.2401 21.8993 37.5 21.2455 37.5 20.5637V10.2819C37.5002 10.1169 37.4704 9.95334 37.4121 9.79991ZM10.3667 24.4195C9.87881 24.4195 9.4019 24.2687 8.99626 23.9862C8.59062 23.7038 8.27446 23.3024 8.08776 22.8327C7.90107 22.363 7.85222 21.8461 7.9474 21.3475C8.04257 20.8489 8.2775 20.3909 8.62247 20.0314C8.96744 19.6719 9.40696 19.4271 9.88544 19.3279C10.3639 19.2287 10.8599 19.2796 11.3106 19.4742C11.7613 19.6687 12.1466 19.9982 12.4176 20.4209C12.6887 20.8436 12.8333 21.3406 12.8333 21.849C12.8333 22.5307 12.5735 23.1845 12.1109 23.6666C11.6483 24.1486 11.0209 24.4195 10.3667 24.4195ZM2.96667 12.8523V2.57047H25.1667V12.8523H2.96667ZM27.6333 24.4195C27.1455 24.4195 26.6686 24.2687 26.2629 23.9862C25.8573 23.7038 25.5411 23.3024 25.3544 22.8327C25.1677 22.363 25.1189 21.8461 25.2141 21.3475C25.3092 20.8489 25.5442 20.3909 25.8891 20.0314C26.2341 19.6719 26.6736 19.4271 27.1521 19.3279C27.6306 19.2287 28.1266 19.2796 28.5773 19.4742C29.028 19.6687 29.4133 19.9982 29.6843 20.4209C29.9553 20.8436 30.1 21.3406 30.1 21.849C30.1 22.5307 29.8401 23.1845 29.3775 23.6666C28.9149 24.1486 28.2875 24.4195 27.6333 24.4195ZM27.6333 8.99664V5.14094H32.9644L34.4444 8.99664H27.6333Z" fill="#FF5454"/>
</svg>
