<svg width="29" height="26" viewBox="0 0 29 26" fill="none" xmlns="http://www.w3.org/2000/svg">
<path id="Vector" d="M28.0696 19.6403C27.82 21.4019 26.8883 23.0188 25.4487 24.1892C24.009 25.3595 22.1597 26.0032 20.2463 26C9.13011 26 0.0859502 17.6019 0.0859502 7.27981C0.0825201 5.50307 0.775724 3.78592 2.03609 2.44908C3.29646 1.11225 5.03779 0.247138 6.93487 0.0153371C7.41459 -0.0390542 7.90039 0.0520779 8.31975 0.27513C8.73911 0.498181 9.06954 0.841189 9.26171 1.25295L12.2186 7.38251V7.39811C12.3657 7.7133 12.4264 8.05742 12.3954 8.39974C12.3644 8.74205 12.2425 9.0719 12.0408 9.35983C12.0156 9.39493 11.989 9.42743 11.961 9.45993L9.0461 12.6684C10.0947 14.647 12.3236 16.6984 14.4824 17.6747L17.8901 14.9824C17.9235 14.9563 17.9586 14.932 17.9951 14.9096C18.3049 14.7177 18.6613 14.6006 19.0322 14.5688C19.403 14.537 19.7765 14.5916 20.1189 14.7276L20.1371 14.7354L26.7326 17.4797C27.1768 17.6575 27.5471 17.9641 27.7881 18.3535C28.0291 18.743 28.1279 19.1944 28.0696 19.6403Z" fill="#FF5454"/>
</svg>
