<svg width="37" height="24" viewBox="0 0 37 24" fill="none" xmlns="http://www.w3.org/2000/svg">
<path id="Vector" d="M24.6667 12C24.6667 13.3185 24.305 14.6075 23.6274 15.7038C22.9498 16.8001 21.9867 17.6546 20.8599 18.1592C19.7331 18.6638 18.4932 18.7958 17.2969 18.5386C16.1007 18.2813 15.0019 17.6464 14.1395 16.714C13.2771 15.7817 12.6898 14.5938 12.4518 13.3006C12.2139 12.0074 12.336 10.667 12.8027 9.44878C13.2695 8.2306 14.0599 7.18941 15.074 6.45687C16.0881 5.72433 17.2803 5.33333 18.5 5.33333C20.1355 5.33333 21.704 6.03571 22.8605 7.28595C24.017 8.5362 24.6667 10.2319 24.6667 12ZM37 1.33333V22.6667C37 23.0203 36.8701 23.3594 36.6388 23.6095C36.4075 23.8595 36.0938 24 35.7667 24H1.23333C0.906233 24 0.59253 23.8595 0.361235 23.6095C0.12994 23.3594 0 23.0203 0 22.6667V1.33333C0 0.979711 0.12994 0.640573 0.361235 0.390525C0.59253 0.140476 0.906233 0 1.23333 0H35.7667C36.0938 0 36.4075 0.140476 36.6388 0.390525C36.8701 0.640573 37 0.979711 37 1.33333ZM34.5333 9.05833C33.1329 8.61067 31.8583 7.79135 30.8257 6.67497C29.793 5.5586 29.0351 4.18066 28.621 2.66667H8.37896C7.96487 4.18066 7.20699 5.5586 6.17435 6.67497C5.1417 7.79135 3.86711 8.61067 2.46667 9.05833V14.9417C3.86711 15.3893 5.1417 16.2087 6.17435 17.325C7.20699 18.4414 7.96487 19.8193 8.37896 21.3333H28.621C29.0351 19.8193 29.793 18.4414 30.8257 17.325C31.8583 16.2087 33.1329 15.3893 34.5333 14.9417V9.05833Z" fill="#FF5454"/>
</svg>
