<svg width="26" height="27" viewBox="0 0 26 27" fill="none" xmlns="http://www.w3.org/2000/svg">
<g id="Money">
<path id="Vector" d="M13 9.20679C12.1965 9.20679 11.4111 9.44505 10.743 9.89144C10.0749 10.3378 9.55422 10.9723 9.24674 11.7146C8.93926 12.457 8.85881 13.2738 9.01556 14.0618C9.17231 14.8499 9.55923 15.5738 10.1274 16.1419C10.6955 16.7101 11.4194 17.097 12.2074 17.2537C12.9955 17.4105 13.8123 17.33 14.5547 17.0225C15.297 16.7151 15.9315 16.1944 16.3778 15.5263C16.8242 14.8582 17.0625 14.0728 17.0625 13.2693C17.0625 12.1918 16.6345 11.1585 15.8726 10.3967C15.1108 9.6348 14.0774 9.20679 13 9.20679ZM13 15.7068C12.5179 15.7068 12.0466 15.5638 11.6458 15.296C11.245 15.0282 10.9325 14.6475 10.748 14.2021C10.5636 13.7567 10.5153 13.2666 10.6093 12.7938C10.7034 12.3209 10.9355 11.8866 11.2764 11.5457C11.6173 11.2048 12.0516 10.9727 12.5245 10.8786C12.9973 10.7846 13.4874 10.8328 13.9328 11.0173C14.3782 11.2018 14.7589 11.5142 15.0267 11.9151C15.2945 12.3159 15.4375 12.7872 15.4375 13.2693C15.4375 13.9158 15.1807 14.5357 14.7236 14.9929C14.2665 15.45 13.6465 15.7068 13 15.7068ZM24.375 5.95679H1.625C1.40951 5.95679 1.20285 6.04239 1.05048 6.19476C0.898102 6.34714 0.8125 6.5538 0.8125 6.76929V19.7693C0.8125 19.9848 0.898102 20.1914 1.05048 20.3438C1.20285 20.4962 1.40951 20.5818 1.625 20.5818H24.375C24.5905 20.5818 24.7972 20.4962 24.9495 20.3438C25.1019 20.1914 25.1875 19.9848 25.1875 19.7693V6.76929C25.1875 6.5538 25.1019 6.34714 24.9495 6.19476C24.7972 6.04239 24.5905 5.95679 24.375 5.95679ZM19.6676 18.9568H6.33242C6.05963 18.0342 5.56035 17.1945 4.88006 16.5142C4.19977 15.8339 3.36009 15.3347 2.4375 15.0619V11.4767C3.36009 11.2039 4.19977 10.7046 4.88006 10.0243C5.56035 9.34406 6.05963 8.50438 6.33242 7.58179H19.6676C19.9404 8.50438 20.4396 9.34406 21.1199 10.0243C21.8002 10.7046 22.6399 11.2039 23.5625 11.4767V15.0619C22.6399 15.3347 21.8002 15.8339 21.1199 16.5142C20.4396 17.1945 19.9404 18.0342 19.6676 18.9568ZM23.5625 9.75218C22.5879 9.33312 21.8112 8.55634 21.3921 7.58179H23.5625V9.75218ZM4.60789 7.58179C4.18884 8.55634 3.41206 9.33312 2.4375 9.75218V7.58179H4.60789ZM2.4375 16.7864C3.41206 17.2055 4.18884 17.9822 4.60789 18.9568H2.4375V16.7864ZM21.3921 18.9568C21.8112 17.9822 22.5879 17.2055 23.5625 16.7864V18.9568H21.3921Z" fill="#682020"/>
</g>
</svg>
