<svg width="97" height="26" viewBox="0 0 97 26" fill="none" xmlns="http://www.w3.org/2000/svg">
<g id="Group">
<path id="Vector" d="M13.8885 25.954C21.0994 25.954 26.9449 20.144 26.9449 12.977C26.9449 5.81001 21.0994 0 13.8885 0C6.6776 0 0.832031 5.81001 0.832031 12.977C0.832031 20.144 6.6776 25.954 13.8885 25.954Z" fill="#5F259F"/>
<path id="Vector_2" d="M66.8772 20.4018V15.6888C66.8772 14.5266 66.4387 13.9456 65.3507 13.9456C64.9122 13.9456 64.4088 14.0101 64.1165 14.0908V20.9829C64.1165 21.1927 63.9054 21.4187 63.678 21.4187H62.0054C61.7942 21.4187 61.5669 21.2088 61.5669 20.9829V12.9287C61.5669 12.6382 61.778 12.4284 62.0054 12.3477C63.0934 11.9926 64.1977 11.7666 65.3669 11.7666C67.9977 11.7666 69.4592 13.1386 69.4592 15.6888V21.0474C69.4592 21.2573 69.2481 21.4832 69.0208 21.4832H67.9977C67.3156 21.4832 66.8772 20.9829 66.8772 20.4018ZM73.4379 17.5772L73.3729 18.2228C73.3729 19.0944 73.9575 19.5948 74.8994 19.5948C75.6302 19.5948 76.2798 19.385 77.0105 19.0137C77.0755 19.0137 77.1567 18.9492 77.2216 18.9492C77.3678 18.9492 77.4328 19.0137 77.5139 19.0944C77.5789 19.159 77.7251 19.385 77.7251 19.385C77.8712 19.5948 78.0174 19.8853 78.0174 20.1113C78.0174 20.4664 77.8063 20.8376 77.5139 20.9829C76.7182 21.4187 75.7601 21.6285 74.737 21.6285C73.5678 21.6285 72.6259 21.338 71.8951 20.7569C71.1644 20.1113 70.7259 19.2397 70.7259 18.1421V15.3175C70.7259 13.074 72.1874 11.6859 74.6721 11.6859C77.0755 11.6859 78.4721 12.9933 78.4721 15.3175V17.0607C78.4721 17.2705 78.261 17.4965 78.0336 17.4965H73.4379V17.5772ZM73.3729 15.9793H76.1498V15.253C76.1498 14.3814 75.6464 13.8003 74.7695 13.8003C73.8926 13.8003 73.3891 14.3007 73.3891 15.253C73.3729 15.253 73.3729 15.9793 73.3729 15.9793ZM91.967 17.5772L91.902 18.2228C91.902 19.0944 92.4866 19.5948 93.4285 19.5948C94.1593 19.5948 94.8089 19.385 95.5396 19.0137C95.6046 19.0137 95.6858 18.9492 95.7508 18.9492C95.8969 18.9492 95.9619 19.0137 96.0431 19.0944C96.108 19.159 96.2542 19.385 96.2542 19.385C96.4003 19.5948 96.5465 19.8853 96.5465 20.1113C96.5465 20.4664 96.3354 20.8376 96.0431 20.9829C95.2473 21.4187 94.2892 21.6285 93.2661 21.6285C92.0969 21.6285 91.155 21.338 90.4242 20.7569C89.6935 20.1113 89.255 19.2397 89.255 18.1421V15.3175C89.255 13.074 90.7166 11.6859 93.2012 11.6859C95.6046 11.6859 97.0012 12.9933 97.0012 15.3175V17.0607C97.0012 17.2705 96.7901 17.4965 96.5627 17.4965H91.967V17.5772ZM91.902 15.9793H94.679V15.253C94.679 14.3814 94.1755 13.8003 93.2986 13.8003C92.4217 13.8003 91.9183 14.3007 91.9183 15.253V15.9793H91.902ZM48.9976 21.4832H50.0207C50.2318 21.4832 50.4592 21.2734 50.4592 21.0474V15.6888C50.4592 13.2193 49.1438 11.7666 46.9515 11.7666C46.3019 11.7666 45.5711 11.9119 45.1327 12.0571V9.3778C45.1327 8.79674 44.6292 8.29639 44.0446 8.29639H43.0215C42.8104 8.29639 42.5831 8.50621 42.5831 8.73218V21.0636C42.5831 21.2734 42.7942 21.4994 43.0215 21.4994H44.6942C44.9053 21.4994 45.1327 21.2895 45.1327 21.0636V14.2361C45.4899 14.0908 46.0096 14.0263 46.3668 14.0263C47.4549 14.0263 47.8933 14.5266 47.8933 15.7695V20.4825C47.9745 20.9829 48.413 21.4832 48.9976 21.4832ZM60.0079 15.3982V18.0776C60.0079 20.3211 58.4814 21.7092 55.9156 21.7092C53.431 21.7092 51.8233 20.3372 51.8233 18.0776V15.3982C51.8233 13.1547 53.3498 11.7666 55.9156 11.7666C58.4814 11.7666 60.0079 13.1547 60.0079 15.3982ZM57.4583 15.3982C57.4583 14.5266 56.9549 13.9456 55.9968 13.9456C55.0387 13.9456 54.5352 14.4459 54.5352 15.3982V18.0776C54.5352 18.9492 55.0387 19.4495 55.9968 19.4495C56.9549 19.4495 57.4583 18.9492 57.4583 18.0776V15.3982ZM41.1865 14.1716C41.1865 16.4797 39.4326 18.0776 37.1104 18.0776C36.5258 18.0776 36.0224 18.013 35.5027 17.787V21.0474C35.5027 21.2573 35.2916 21.4832 35.0642 21.4832H33.3916C33.1805 21.4832 32.9531 21.2734 32.9531 21.0474V9.52307C32.9531 9.23254 33.1642 9.02271 33.3916 8.94201C34.4796 8.58692 35.5839 8.36095 36.7531 8.36095C39.3839 8.36095 41.2027 9.95886 41.2027 12.4284C41.1865 12.4284 41.1865 14.1716 41.1865 14.1716ZM38.5719 12.2831C38.5719 11.121 37.7762 10.5399 36.6719 10.5399C36.0224 10.5399 35.5839 10.7498 35.5839 10.7498V15.5435C36.0224 15.7533 36.2335 15.834 36.7531 15.834C37.8412 15.834 38.6531 15.1884 38.6531 14.0908V12.2831H38.5719ZM88.3294 14.1716C88.3294 16.4958 86.5755 18.0937 84.237 18.0937C83.6524 18.0937 83.149 18.0291 82.6293 17.8032V21.0636C82.6293 21.2734 82.4182 21.4994 82.1909 21.4994H80.5182C80.3071 21.4994 80.0798 21.2895 80.0798 21.0636V9.52307C80.0798 9.23254 80.2909 9.02271 80.5182 8.94201C81.6063 8.58692 82.7105 8.36095 83.8798 8.36095C86.5106 8.36095 88.3294 9.95886 88.3294 12.4284V14.1716ZM85.6986 12.2831C85.6986 11.121 84.9029 10.5399 83.7986 10.5399C83.149 10.5399 82.7105 10.7498 82.7105 10.7498V15.5435C83.149 15.7533 83.3601 15.834 83.8798 15.834C84.9678 15.834 85.7798 15.1884 85.7798 14.0908V12.2831H85.6986Z" fill="#5F259F"/>
<path id="Vector_3" d="M19.8158 9.58758C19.8158 9.08723 19.3773 8.65143 18.8739 8.65143H17.1201L13.1089 4.08365C12.7517 3.64786 12.1671 3.50259 11.5824 3.64786L10.2021 4.08365C9.99099 4.14822 9.90979 4.43875 10.0559 4.58401L14.4406 8.71599H7.79867C7.58756 8.71599 7.44141 8.86126 7.44141 9.07109V9.79741C7.44141 10.2978 7.87987 10.7336 8.38329 10.7336H9.40637V14.2361C9.40637 16.8508 10.7867 18.368 13.1252 18.368C13.856 18.368 14.4406 18.3035 15.1713 18.013V20.3372C15.1713 20.9828 15.6748 21.4993 16.3406 21.4993H17.3637C17.5748 21.4993 17.8021 21.2895 17.8021 21.0635V10.7013H19.4748C19.6859 10.7013 19.832 10.556 19.832 10.3462C19.8158 10.3139 19.8158 9.58758 19.8158 9.58758ZM15.1389 15.834C14.7004 16.0438 14.1158 16.1245 13.6773 16.1245C12.5081 16.1245 11.9235 15.5434 11.9235 14.2361V10.7497H15.1389V15.834Z" fill="white"/>
</g>
</svg>
