<svg width="39" height="40" viewBox="0 0 39 40" fill="none" xmlns="http://www.w3.org/2000/svg">
<path id="Vector" d="M38.165 30.2159C37.8258 32.926 36.5601 35.4136 34.6042 37.2141C32.6483 39.0146 30.136 40.0049 27.5365 40C12.4345 40 0.147478 27.0799 0.147478 11.1997C0.142818 8.46626 1.08458 5.8245 2.79686 3.76782C4.50914 1.71115 6.87485 0.380212 9.45214 0.0235955C10.1039 -0.0600834 10.7639 0.0801199 11.3336 0.423276C11.9033 0.766433 12.3522 1.29414 12.6133 1.92761L16.6303 11.3577V11.3817C16.8302 11.8666 16.9128 12.396 16.8706 12.9227C16.8285 13.4493 16.6629 13.9568 16.3888 14.3997C16.3545 14.4537 16.3184 14.5037 16.2804 14.5537L12.3204 19.4898C13.745 22.5338 16.773 25.6898 19.7059 27.1919L24.3354 23.0498C24.3809 23.0096 24.4285 22.9722 24.4781 22.9378C24.899 22.6426 25.3832 22.4624 25.887 22.4135C26.3908 22.3646 26.8982 22.4486 27.3634 22.6578L27.3881 22.6698L36.3485 26.8919C36.952 27.1654 37.4551 27.637 37.7825 28.2362C38.1099 28.8354 38.2441 29.5299 38.165 30.2159Z" fill="#ECECEC"/>
</svg>
