<svg width="38" height="40" viewBox="0 0 38 40" fill="none" xmlns="http://www.w3.org/2000/svg">
<path id="Vector" d="M34.5767 11.202H28.33C28.3994 11.136 28.4707 11.072 28.5383 11.002C29.0791 10.4624 29.515 9.80329 29.8186 9.06586C30.1223 8.32844 30.2872 7.52858 30.303 6.71632C30.3264 5.82773 30.1878 4.94315 29.8958 4.11688C29.6038 3.29061 29.1645 2.54009 28.6048 1.91139C28.0452 1.28269 27.3771 0.789089 26.6414 0.460881C25.9058 0.132673 25.1182 -0.0232136 24.327 0.00279209C23.6034 0.0202946 22.8909 0.205348 22.2339 0.546368C21.577 0.887388 20.9898 1.37703 20.5091 1.98465C19.844 2.85038 19.3033 3.82741 18.9065 4.88045C18.5097 3.82741 17.969 2.85038 17.3039 1.98465C16.8232 1.37703 16.236 0.887388 15.5791 0.546368C14.9221 0.205348 14.2096 0.0202946 13.4861 0.00279209C12.6948 -0.0232136 11.9072 0.132673 11.1716 0.460881C10.436 0.789089 9.76781 1.28269 9.20818 1.91139C8.64855 2.54009 8.20923 3.29061 7.91721 4.11688C7.62519 4.94315 7.48662 5.82773 7.51002 6.71632C7.52584 7.52858 7.69073 8.32844 7.99437 9.06586C8.29802 9.80329 8.73388 10.4624 9.27469 11.002C9.34236 11.068 9.41359 11.132 9.48303 11.202H3.23633C2.4807 11.202 1.75601 11.5391 1.2217 12.1392C0.687382 12.7393 0.387207 13.5532 0.387207 14.4018V20.8013C0.387207 21.65 0.687382 22.4638 1.2217 23.0639C1.75601 23.664 2.4807 24.0011 3.23633 24.0011V36.8002C3.23633 37.6489 3.5365 38.4627 4.07082 39.0628C4.60513 39.6629 5.32982 40 6.08545 40H16.7697C16.9586 40 17.1397 39.9157 17.2733 39.7657C17.4069 39.6157 17.4819 39.4122 17.4819 39.2001V20.8013H3.23633V14.4018H17.4819V20.8013H20.3311V14.4018H34.5767V20.8013H20.3311V39.2001C20.3311 39.4122 20.4061 39.6157 20.5397 39.7657C20.6733 39.9157 20.8544 40 21.0434 40H31.7276C32.4832 40 33.2079 39.6629 33.7422 39.0628C34.2765 38.4627 34.5767 37.6489 34.5767 36.8002V24.0011C35.3323 24.0011 36.057 23.664 36.5913 23.0639C37.1256 22.4638 37.4258 21.65 37.4258 20.8013V14.4018C37.4258 13.5532 37.1256 12.7393 36.5913 12.1392C36.057 11.5391 35.3323 11.202 34.5767 11.202ZM11.1622 8.60219C10.9132 8.34887 10.7134 8.04046 10.5755 7.6963C10.4376 7.35215 10.3645 6.9797 10.3609 6.60233C10.3519 6.16017 10.4216 5.72043 10.5658 5.30889C10.7101 4.89735 10.926 4.52227 11.201 4.20565C11.4759 3.88902 11.8044 3.63721 12.1671 3.46497C12.5298 3.29273 12.9195 3.20352 13.3133 3.20257H13.4006C13.7366 3.20664 14.0682 3.28868 14.3747 3.44355C14.6811 3.59842 14.9557 3.82277 15.1813 4.10251C16.6753 5.99837 17.2024 9.14215 17.3876 11.086C15.6496 10.88 12.8521 10.2881 11.1622 8.60219ZM26.6543 8.60219C24.9645 10.2821 22.1598 10.874 20.4219 11.082C20.6338 8.98017 21.2214 5.90238 22.646 4.10451C22.8715 3.82477 23.1462 3.60042 23.4526 3.44555C23.759 3.29068 24.0907 3.20864 24.4267 3.20457H24.5139C24.9078 3.20733 25.2972 3.29835 25.6593 3.47229C26.0214 3.64623 26.3489 3.89959 26.6227 4.21753C26.8965 4.53546 27.1111 4.91158 27.2538 5.32383C27.3965 5.73608 27.4646 6.17618 27.4539 6.61833C27.4481 6.99314 27.3738 7.36262 27.2357 7.70387C27.0975 8.04512 26.8984 8.35088 26.6508 8.60219H26.6543Z" fill="#ECECEC"/>
</svg>
