<svg width="47" height="34" viewBox="0 0 47 34" fill="none" xmlns="http://www.w3.org/2000/svg">
<path id="Vector" d="M46.508 12.3406L43.8218 5.25994C43.5938 4.66053 43.2003 4.14718 42.6923 3.78645C42.1842 3.42572 41.5851 3.23426 40.9726 3.23689H34.3379V1.61844C34.3379 1.18921 34.1762 0.777548 33.8883 0.474031C33.6004 0.170514 33.21 0 32.8029 0H3.6392C2.82502 0 2.04419 0.341028 1.46848 0.948062C0.892767 1.5551 0.569336 2.37841 0.569336 3.23689V25.8951C0.569336 26.7536 0.892767 27.5769 1.46848 28.1839C2.04419 28.7909 2.82502 29.132 3.6392 29.132H6.90094C7.23908 30.5245 8.00716 31.7588 9.08409 32.6402C10.161 33.5216 11.4855 34 12.8488 34C14.2121 34 15.5366 33.5216 16.6135 32.6402C17.6904 31.7588 18.4585 30.5245 18.7967 29.132H28.39C28.7281 30.5245 29.4962 31.7588 30.5731 32.6402C31.6501 33.5216 32.9746 34 34.3379 34C35.7011 34 37.0257 33.5216 38.1026 32.6402C39.1795 31.7588 39.9476 30.5245 40.2857 29.132H43.5475C44.3616 29.132 45.1425 28.7909 45.7182 28.1839C46.2939 27.5769 46.6173 26.7536 46.6173 25.8951V12.9475C46.6176 12.7398 46.5804 12.5338 46.508 12.3406ZM12.8488 30.7504C12.2416 30.7504 11.6481 30.5606 11.1433 30.2049C10.6384 29.8492 10.245 29.3437 10.0126 28.7522C9.78026 28.1608 9.71947 27.5099 9.83792 26.882C9.95637 26.2542 10.2487 25.6774 10.6781 25.2247C11.1074 24.772 11.6544 24.4637 12.2499 24.3388C12.8454 24.2139 13.4626 24.278 14.0236 24.523C14.5845 24.768 15.064 25.1829 15.4013 25.7152C15.7386 26.2475 15.9187 26.8733 15.9187 27.5135C15.9187 28.372 15.5952 29.1953 15.0195 29.8024C14.4438 30.4094 13.663 30.7504 12.8488 30.7504ZM3.6392 16.1844V3.23689H31.268V16.1844H3.6392ZM34.3379 30.7504C33.7307 30.7504 33.1372 30.5606 32.6323 30.2049C32.1275 29.8492 31.734 29.3437 31.5017 28.7522C31.2693 28.1608 31.2085 27.5099 31.327 26.882C31.4454 26.2542 31.7378 25.6774 32.1671 25.2247C32.5965 24.772 33.1435 24.4637 33.739 24.3388C34.3345 24.2139 34.9517 24.278 35.5127 24.523C36.0736 24.768 36.553 25.1829 36.8904 25.7152C37.2277 26.2475 37.4077 26.8733 37.4077 27.5135C37.4077 28.372 37.0843 29.1953 36.5086 29.8024C35.9329 30.4094 35.152 30.7504 34.3379 30.7504ZM34.3379 11.3291V6.47377H40.9726L42.8145 11.3291H34.3379Z" fill="#ECECEC"/>
</svg>
