<svg width="45" height="29" viewBox="0 0 45 29" fill="none" xmlns="http://www.w3.org/2000/svg">
<path id="Vector" d="M30.1056 14.5C30.1056 16.0932 29.6751 17.6507 28.8685 18.9754C28.0618 20.3002 26.9153 21.3327 25.5739 21.9424C24.2325 22.5521 22.7565 22.7116 21.3325 22.4008C19.9085 22.0899 18.6004 21.3227 17.5738 20.1961C16.5471 19.0695 15.848 17.6342 15.5647 16.0716C15.2815 14.5089 15.4268 12.8892 15.9825 11.4173C16.5381 9.94531 17.479 8.68721 18.6862 7.80205C19.8934 6.9169 21.3127 6.44444 22.7647 6.44444C24.7116 6.44444 26.5788 7.29315 27.9555 8.80386C29.3322 10.3146 30.1056 12.3635 30.1056 14.5ZM44.7876 1.61111V27.3889C44.7876 27.8162 44.6329 28.226 44.3576 28.5281C44.0822 28.8303 43.7088 29 43.3194 29H2.2099C1.82051 29 1.44706 28.8303 1.17172 28.5281C0.896384 28.226 0.741699 27.8162 0.741699 27.3889V1.61111C0.741699 1.18382 0.896384 0.774026 1.17172 0.471884C1.44706 0.169742 1.82051 0 2.2099 0H43.3194C43.7088 0 44.0822 0.169742 44.3576 0.471884C44.6329 0.774026 44.7876 1.18382 44.7876 1.61111ZM41.8512 10.9455C40.1841 10.4046 38.6668 9.41454 37.4375 8.06559C36.2082 6.71664 35.306 5.05163 34.813 3.22222H10.7163C10.2233 5.05163 9.32112 6.71664 8.09183 8.06559C6.86254 9.41454 5.34522 10.4046 3.67809 10.9455V18.0545C5.34522 18.5954 6.86254 19.5855 8.09183 20.9344C9.32112 22.2834 10.2233 23.9484 10.7163 25.7778H34.813C35.306 23.9484 36.2082 22.2834 37.4375 20.9344C38.6668 19.5855 40.1841 18.5954 41.8512 18.0545V10.9455Z" fill="#ECECEC"/>
</svg>
